<svg width="43" height="43" viewBox="0 0 43 43" fill="none" xmlns="http://www.w3.org/2000/svg">
<path d="M38.5202 25.7416C40.7637 16.4395 35.0417 7.08003 25.7396 4.83651C16.4376 2.59299 7.07812 8.31503 4.83459 17.6171C2.59107 26.9191 8.31311 36.2786 17.6151 38.5221C26.9171 40.7656 36.2767 35.0436 38.5202 25.7416Z" fill="url(#paint0_linear_333_2064)"/>
<path d="M20.3257 37.6515C29.8944 37.6515 37.6514 29.8945 37.6514 20.3257C37.6514 10.757 29.8944 3 20.3257 3C10.7569 3 2.99994 10.757 2.99994 20.3257C2.99994 29.8945 10.7569 37.6515 20.3257 37.6515Z" fill="url(#paint1_linear_333_2064)"/>
<path d="M20.3257 34.7607C28.2979 34.7607 34.7607 28.2979 34.7607 20.3257C34.7607 12.3535 28.2979 5.89069 20.3257 5.89069C12.3535 5.89069 5.89069 12.3535 5.89069 20.3257C5.89069 28.2979 12.3535 34.7607 20.3257 34.7607Z" fill="url(#paint2_linear_333_2064)"/>
<path style="mix-blend-mode:multiply" opacity="0.5" d="M20.3257 34.7607C28.2979 34.7607 34.7607 28.2979 34.7607 20.3257C34.7607 12.3535 28.2979 5.89069 20.3257 5.89069C12.3535 5.89069 5.89069 12.3535 5.89069 20.3257C5.89069 28.2979 12.3535 34.7607 20.3257 34.7607Z" fill="url(#paint3_linear_333_2064)"/>
<g style="mix-blend-mode:overlay" opacity="0.7">
<path d="M30.663 10.2529C33.1961 12.853 34.7607 16.4031 34.7607 20.322C34.7607 28.2938 28.2975 34.757 20.3257 34.757C16.4068 34.757 12.8567 33.1924 10.2565 30.6593C12.879 33.3526 16.5409 35.0252 20.5976 35.0252C28.5694 35.0252 35.0326 28.5621 35.0326 20.5902C35.0326 16.5335 33.3563 12.8717 30.6667 10.2491L30.663 10.2529Z" fill="white"/>
</g>
<path style="mix-blend-mode:multiply" d="M6.69905 20.8659C6.69905 12.8941 13.1622 6.42717 21.1378 6.42717C23.9093 6.42717 26.4946 7.20946 28.6924 8.56169C26.3307 6.87792 23.4437 5.88702 20.3257 5.88702C12.3501 5.88702 5.88696 12.3502 5.88696 20.3258C5.88696 25.5298 8.63986 30.0857 12.7673 32.6263C9.09433 30.0075 6.69905 25.7198 6.69905 20.8659Z" fill="url(#paint4_linear_333_2064)"/>
<path style="mix-blend-mode:multiply" d="M34.1647 30.7338L36.2917 30.9685C35.7069 31.8849 35.0401 32.7417 34.2988 33.5314L31.8327 33.2595C32.6932 32.4996 33.4718 31.6502 34.1684 30.7338H34.1647Z" fill="url(#paint5_linear_333_2064)"/>
<path style="mix-blend-mode:multiply" d="M37.6626 20.6722C37.7595 16.2355 36.1763 12.149 33.4979 9.02728C36.9697 12.2756 39.0968 16.9284 38.985 22.0579C38.9217 24.8853 38.1841 27.5376 36.9287 29.8696L34.9246 29.6461C36.5897 27.0534 37.5881 23.9801 37.6589 20.6722H37.6626Z" fill="url(#paint6_linear_333_2064)"/>
<path style="mix-blend-mode:multiply" d="M8.51318 32.9466C11.5194 35.7591 15.5277 37.5174 19.9681 37.6142C21.9387 37.6589 23.8385 37.3646 25.6191 36.7947L29.3443 37.2082C26.923 38.4077 24.185 39.0596 21.2942 38.9963C16.1684 38.8845 11.6125 36.5526 8.51691 32.9466H8.51318Z" fill="url(#paint7_linear_333_2064)"/>
<path style="mix-blend-mode:overlay" opacity="0.9" d="M20.3258 21.678C25.8502 21.678 30.8866 20.5865 34.6826 18.7947C33.9189 11.5418 27.7836 5.88702 20.3258 5.88702C12.868 5.88702 6.73265 11.5381 5.96899 18.7947C9.76494 20.5865 14.7976 21.678 20.3258 21.678Z" fill="url(#paint8_radial_333_2064)"/>
<path style="mix-blend-mode:overlay" opacity="0.9" d="M33.7998 30.3873C34.6156 32.2574 31.7509 35.3083 27.3999 37.2044C23.0527 39.1005 18.8656 39.1229 18.0498 37.2566C17.234 35.3865 20.0986 32.3356 24.4496 30.4395C28.7969 28.5434 32.984 28.521 33.7998 30.3873Z" fill="url(#paint9_radial_333_2064)"/>
<path style="mix-blend-mode:overlay" opacity="0.9" d="M9.9624 8.44616C11.378 7.0306 12.5439 5.63739 13.3001 4.51611C9.67929 6.12166 6.71405 8.93416 4.90735 12.4395C6.1143 11.8659 8.02159 10.387 9.9624 8.44616Z" fill="url(#paint10_radial_333_2064)"/>
<path opacity="0.78" d="M28.9085 9.4184L29.6684 10.5471L28.7669 11.4523L28.9085 9.4184Z" fill="#FDF193"/>
<path d="M12.7078 17.1221V24.4085L19.9458 17.1705L12.7078 9.9176V17.1221Z" fill="#FDF193"/>
<path d="M29.6685 17.7479V24.6954L22.6354 17.5915L29.6685 10.5472V17.7479Z" fill="#FDF193"/>
<path d="M17.9384 24.6736C17.4169 24.6736 16.9922 25.0983 16.9922 25.6198C16.9922 26.1413 17.4169 26.566 17.9384 26.566C18.46 26.566 18.8846 26.1413 18.8846 25.6198C18.8846 25.0983 18.46 24.6736 17.9384 24.6736Z" fill="#FDF193"/>
<path d="M23.8131 26.7001C24.3356 26.7001 24.7593 26.2764 24.7593 25.7539C24.7593 25.2313 24.3356 24.8077 23.8131 24.8077C23.2905 24.8077 22.8669 25.2313 22.8669 25.7539C22.8669 26.2764 23.2905 26.7001 23.8131 26.7001Z" fill="#FDF193"/>
<path d="M27.9843 25.5541L21.007 18.5769L14.0298 24.1647C13.6312 24.5632 13.6312 26.6009 14.0298 27.0032C14.0298 27.0032 16.697 28.8546 17.4644 29.6146C18.2839 30.4267 20.2843 33.2578 20.2843 33.2578C20.6829 33.6564 21.3311 33.6564 21.7334 33.2578C21.7334 33.2578 23.827 30.6092 24.6204 29.812C25.3953 29.0372 27.9843 27.0032 27.9843 27.0032C28.3828 26.6046 28.3828 25.9565 27.9843 25.5541ZM23.9164 28.0537C23.108 28.0537 22.1048 28.0259 21.7956 27.3331C21.7956 27.3331 21.4928 27.4545 21.4495 26.9869C21.1466 27.4545 20.5641 27.1121 21.1033 26.6407C20.9432 26.272 20.4715 25.0532 19.3726 27.3331C19.0634 28.0259 18.9097 28.0537 18.1014 28.0537C17.0025 28.0537 16.1121 27.1634 16.1121 26.0645C16.1121 24.9656 17.0025 24.0752 18.1014 24.0752H23.9201C25.019 24.0752 25.9093 24.9656 25.9093 26.0645C25.9093 27.1634 25.019 28.0537 23.9201 28.0537H23.9164Z" fill="#FDF193"/>
<path d="M19.3561 16.6675L12.2852 23.7384V16.6191V9.58572L19.3561 16.6675Z" fill="#A0780A" stroke="url(#paint11_linear_333_2064)" stroke-width="0.138462"/>
<path d="M28.8392 16.6191V23.7384L21.7683 16.6675L28.8392 9.58572V16.6191Z" fill="#A0780A" stroke="url(#paint12_linear_333_2064)" stroke-width="0.138462"/>
<path d="M18.3642 25.2653C18.3642 25.7784 17.9482 26.1944 17.4351 26.1944C16.922 26.1944 16.506 25.7784 16.506 25.2653C16.506 24.7521 16.922 24.3361 17.4351 24.3361C17.9482 24.3361 18.3642 24.7521 18.3642 25.2653Z" fill="#A0780A" stroke="url(#paint13_linear_333_2064)" stroke-width="0.138462"/>
<path d="M24.5628 25.2653C24.5628 25.7784 24.1469 26.1944 23.6337 26.1944C23.1206 26.1944 22.7046 25.7784 22.7046 25.2653C22.7046 24.7521 23.1206 24.3361 23.6337 24.3361C24.1469 24.3361 24.5628 24.7521 24.5628 25.2653Z" fill="#A0780A" stroke="url(#paint14_linear_333_2064)" stroke-width="0.138462"/>
<path d="M27.8798 24.7778C28.2727 25.1708 28.2737 25.8102 27.8827 26.2043L27.8781 26.208L27.855 26.2261L27.7667 26.2958C27.6903 26.3562 27.5802 26.4434 27.4456 26.5506C27.1763 26.765 26.8087 27.0593 26.4155 27.3792C25.6302 28.0179 24.7388 28.7615 24.3261 29.1723L24.3749 29.2214L24.3261 29.1723C23.9021 29.5944 23.137 30.5064 22.4802 31.3098C22.1512 31.7121 21.8486 32.0882 21.6283 32.3637C21.5181 32.5015 21.4285 32.6141 21.3664 32.6923L21.2948 32.7826L21.2761 32.8062L21.2723 32.811C20.8795 33.2008 20.2431 33.2012 19.8498 32.8123L19.8471 32.8086L19.8293 32.7833L19.7607 32.6868C19.7012 32.6032 19.6152 32.483 19.5094 32.3359C19.2977 32.0419 19.0065 31.6409 18.6881 31.2131C18.0529 30.3593 17.3056 29.3927 16.869 28.9599L16.869 28.9599C16.4604 28.555 15.5487 27.8627 14.7439 27.2745C14.3405 26.9797 13.9624 26.71 13.6852 26.514C13.5466 26.416 13.4332 26.3364 13.3544 26.2813L13.2634 26.2178L13.2396 26.2012L13.2366 26.1992C12.847 25.8049 12.8485 25.1666 13.2409 24.7741L20.5604 17.4547L27.8595 24.7538V24.7575L27.8798 24.7778ZM21.6497 26.1298V26.1331L21.6557 26.1466C21.9942 26.9044 22.7522 27.4318 23.6336 27.4318H23.6374C24.8341 27.4318 25.8039 26.462 25.8039 25.2653C25.8039 24.0685 24.8341 23.0988 23.6374 23.0988H17.4946C16.2978 23.0988 15.3281 24.0685 15.3281 25.2653C15.3281 26.462 16.2978 27.4318 17.4946 27.4318C18.3758 27.4318 19.1334 26.9009 19.4721 26.1475C19.7595 25.5507 20.0287 25.2367 20.2657 25.098C20.4962 24.963 20.7025 24.9901 20.8864 25.0974C21.0749 25.2074 21.2393 25.4023 21.3688 25.5995C21.497 25.7948 21.5868 25.9856 21.629 26.0818C21.6331 26.0921 21.6372 26.1012 21.6407 26.1092C21.644 26.1166 21.6469 26.1231 21.6497 26.1298Z" fill="#A0780A" stroke="url(#paint15_linear_333_2064)" stroke-width="0.138462"/>
<defs>
<linearGradient id="paint0_linear_333_2064" x1="4.35136" y1="21.6778" x2="38.9991" y2="21.6778" gradientUnits="userSpaceOnUse">
<stop stop-color="#CDA838"/>
<stop offset="0.2" stop-color="#F5BB00"/>
<stop offset="0.35" stop-color="#FBE36E"/>
<stop offset="0.52" stop-color="#FFD71F"/>
<stop offset="0.82" stop-color="#DF9808"/>
<stop offset="1" stop-color="#FCCF17"/>
</linearGradient>
<linearGradient id="paint1_linear_333_2064" x1="-1.82788" y1="36.2061" x2="45.9958" y2="1.9197" gradientUnits="userSpaceOnUse">
<stop stop-color="#CDA838"/>
<stop offset="0.2" stop-color="#F5BB00"/>
<stop offset="0.35" stop-color="#FBE36E"/>
<stop offset="0.52" stop-color="#FFD71F"/>
<stop offset="0.82" stop-color="#DF9808"/>
<stop offset="1" stop-color="#FCCF17"/>
</linearGradient>
<linearGradient id="paint2_linear_333_2064" x1="0.24706" y1="34.7197" x2="40.0989" y2="6.14772" gradientUnits="userSpaceOnUse">
<stop stop-color="#FCCF17"/>
<stop offset="0.18" stop-color="#DF9808"/>
<stop offset="0.48" stop-color="#FFD71F"/>
<stop offset="0.65" stop-color="#FBE36E"/>
<stop offset="0.8" stop-color="#F5BB00"/>
<stop offset="1" stop-color="#CDA838"/>
</linearGradient>
<linearGradient id="paint3_linear_333_2064" x1="-0.0770297" y1="4.31494" x2="33.8965" y2="30.976" gradientUnits="userSpaceOnUse">
<stop stop-color="#FBE36E" stop-opacity="0"/>
<stop offset="0.39" stop-color="#FAE26D" stop-opacity="0"/>
<stop offset="0.53" stop-color="#F9E06B" stop-opacity="0.04"/>
<stop offset="0.63" stop-color="#F6DD68" stop-opacity="0.1"/>
<stop offset="0.71" stop-color="#F2D864" stop-opacity="0.18"/>
<stop offset="0.78" stop-color="#EDD15E" stop-opacity="0.29"/>
<stop offset="0.84" stop-color="#E7CA57" stop-opacity="0.42"/>
<stop offset="0.9" stop-color="#E0C04E" stop-opacity="0.58"/>
<stop offset="0.95" stop-color="#D7B544" stop-opacity="0.76"/>
<stop offset="0.99" stop-color="#CEAA39" stop-opacity="0.97"/>
<stop offset="1" stop-color="#CDA838"/>
</linearGradient>
<linearGradient id="paint4_linear_333_2064" x1="-2.10352" y1="30.9648" x2="36.6643" y2="3.16765" gradientUnits="userSpaceOnUse">
<stop stop-color="#FCCF17"/>
<stop offset="0.18" stop-color="#DF9808"/>
<stop offset="0.48" stop-color="#FFD71F"/>
<stop offset="0.65" stop-color="#FBE36E"/>
<stop offset="0.8" stop-color="#F5BB00"/>
<stop offset="1" stop-color="#CDA838"/>
</linearGradient>
<linearGradient id="paint5_linear_333_2064" x1="34.5619" y1="9.05319" x2="33.9025" y2="39.2757" gradientUnits="userSpaceOnUse">
<stop stop-color="#FCCF17"/>
<stop offset="0.18" stop-color="#DF9808"/>
<stop offset="0.48" stop-color="#FFD71F"/>
<stop offset="0.65" stop-color="#FBE36E"/>
<stop offset="0.8" stop-color="#F5BB00"/>
<stop offset="1" stop-color="#CDA838"/>
</linearGradient>
<linearGradient id="paint6_linear_333_2064" x1="36.3794" y1="9.09285" x2="35.7199" y2="39.3154" gradientUnits="userSpaceOnUse">
<stop stop-color="#FCCF17"/>
<stop offset="0.18" stop-color="#DF9808"/>
<stop offset="0.48" stop-color="#FFD71F"/>
<stop offset="0.65" stop-color="#FBE36E"/>
<stop offset="0.8" stop-color="#F5BB00"/>
<stop offset="1" stop-color="#CDA838"/>
</linearGradient>
<linearGradient id="paint7_linear_333_2064" x1="19.4972" y1="8.7245" x2="18.8378" y2="38.947" gradientUnits="userSpaceOnUse">
<stop stop-color="#FCCF17"/>
<stop offset="0.18" stop-color="#DF9808"/>
<stop offset="0.48" stop-color="#FFD71F"/>
<stop offset="0.65" stop-color="#FBE36E"/>
<stop offset="0.8" stop-color="#F5BB00"/>
<stop offset="1" stop-color="#CDA838"/>
</linearGradient>
<radialGradient id="paint8_radial_333_2064" cx="0" cy="0" r="1" gradientUnits="userSpaceOnUse" gradientTransform="translate(20.3258 42.0249) scale(32.2115)">
<stop stop-color="white"/>
<stop offset="1" stop-color="white" stop-opacity="0"/>
</radialGradient>
<radialGradient id="paint9_radial_333_2064" cx="0" cy="0" r="1" gradientUnits="userSpaceOnUse" gradientTransform="translate(28.8265 43.4055) rotate(-23.56) scale(8.51871 3.62045)">
<stop stop-color="white"/>
<stop offset="0.88" stop-color="white" stop-opacity="0"/>
</radialGradient>
<radialGradient id="paint10_radial_333_2064" cx="0" cy="0" r="1" gradientUnits="userSpaceOnUse" gradientTransform="translate(8.37206 7.74648) rotate(-42.42) scale(6.08692 1.88695)">
<stop stop-color="white"/>
<stop offset="1" stop-color="white" stop-opacity="0"/>
</radialGradient>
<linearGradient id="paint11_linear_333_2064" x1="15.835" y1="9.4184" x2="15.835" y2="23.9056" gradientUnits="userSpaceOnUse">
<stop stop-color="#FAE81E"/>
<stop offset="1" stop-color="#FCCF17" stop-opacity="0"/>
</linearGradient>
<linearGradient id="paint12_linear_333_2064" x1="25.2894" y1="9.4184" x2="25.2894" y2="23.9056" gradientUnits="userSpaceOnUse">
<stop stop-color="#FAE81E"/>
<stop offset="1" stop-color="#FCCF17" stop-opacity="0"/>
</linearGradient>
<linearGradient id="paint13_linear_333_2064" x1="17.4351" y1="24.2669" x2="17.4351" y2="26.2636" gradientUnits="userSpaceOnUse">
<stop stop-color="#FAE81E"/>
<stop offset="1" stop-color="#FCCF17" stop-opacity="0"/>
</linearGradient>
<linearGradient id="paint14_linear_333_2064" x1="23.6337" y1="24.2669" x2="23.6337" y2="26.2636" gradientUnits="userSpaceOnUse">
<stop stop-color="#FAE81E"/>
<stop offset="1" stop-color="#FCCF17" stop-opacity="0"/>
</linearGradient>
<linearGradient id="paint15_linear_333_2064" x1="20.5604" y1="17.3568" x2="20.5604" y2="33.1729" gradientUnits="userSpaceOnUse">
<stop stop-color="#FAE81E"/>
<stop offset="1" stop-color="#FCCF17" stop-opacity="0"/>
</linearGradient>
</defs>
</svg>
